<svg xmlns="http://www.w3.org/2000/svg" width="63.051" height="95.539" viewBox="0 0 63.051 95.539">
  <defs>
    <style>
      .cls-1 {
        fill: #fff;
      }
    </style>
  </defs>
  <g id="Group_20" data-name="Group 20" transform="translate(-1572.263 -6903.144)">
    <path id="Path_51" data-name="Path 51" class="cls-1" d="M1952.669,6928.4a42.069,42.069,0,0,0-.557-5.681,23.709,23.709,0,0,0-7.521-13.131,23.951,23.951,0,0,0-12.341-6.066c-.82-.14-1.644-.254-2.466-.381h-1.7v9.861a14.259,14.259,0,0,1,2.325.213,14.444,14.444,0,0,1,11.374,9.135,19.359,19.359,0,0,1,1.088,8.147h.006v2.268l9.814-.014C1952.686,6931.248,1952.754,6929.821,1952.669,6928.4Z" transform="translate(-324.281 0)"/>
    <path id="Path_52" data-name="Path 52" class="cls-1" d="M1673.1,6903.145a3.459,3.459,0,0,1-.479.111,23.534,23.534,0,0,0-10.253,3.3,24.358,24.358,0,0,0-11.828,17.119c-.145.8-.25,1.6-.373,2.406v6.692H1660v-.046h-.086c.094-2.439.126-4.8.3-7.161a11.836,11.836,0,0,1,1.607-4.859,14.74,14.74,0,0,1,12.977-7.7v-9.861Z" transform="translate(-70.998 0)"/>
    <path id="Path_53" data-name="Path 53" class="cls-1" d="M1598.653,7160.67v-34.161h-10.569v-8.941H1603.8q0-9.543,0-19.088v-1.831a4.167,4.167,0,0,0-.572.188c-4.371,2.139-8.733,4.295-13.11,6.422-5.533,2.688-11.069,5.372-16.627,8.009a1.8,1.8,0,0,0-1.219,1.906c.042,9.919.078,19.838-.007,29.755a19.352,19.352,0,0,0,1.983,8.389c3.073,6.649,7.983,11.81,13.576,16.376a75.712,75.712,0,0,0,9.574,6.584q.63.371,1.255.747V7160.67Z" transform="translate(0 -176.355)"/>
    <path id="Path_54" data-name="Path 54" class="cls-1" d="M1959.593,7113.021a1.448,1.448,0,0,0-.964-1.531q-8.224-3.958-16.416-7.984c-4.343-2.124-8.678-4.268-13.019-6.4-.361-.177-.744-.308-1.117-.46v1.831c0,3.608,0,10.729,0,19.088h15.81v8.941h-10.731v34.249h-.006v14.279a80.518,80.518,0,0,0,13.279-9.426,43.805,43.805,0,0,0,11.417-14.913,18.668,18.668,0,0,0,1.745-7.728C1959.541,7132.987,1959.561,7123,1959.593,7113.021Z" transform="translate(-324.279 -176.355)"/>
  </g>
</svg>
